HIERARCHY
ROOT joint_Root
{
	OFFSET 0.0 0.0 0.0
	CHANNELS 6 Xposition Yposition Zposition Zrotation Xrotation Yrotation 
	JOINT Hips
	{
		OFFSET 4.5925 91.4895 -427.239
		CHANNELS 6 Xposition Yposition Zposition Zrotation Xrotation Yrotation 
		JOINT Spine
		{
			OFFSET 15.7357 0.0 0.0
			CHANNELS 6 Xposition Yposition Zposition Zrotation Xrotation Yrotation 
			JOINT Chest
			{
				OFFSET 8.98455 -0.406207 0.0
				CHANNELS 6 Xposition Yposition Zposition Zrotation Xrotation Yrotation 
				JOINT Neck
				{
					OFFSET 16.3773 0.0 0.0
					CHANNELS 6 Xposition Yposition Zposition Zrotation Xrotation Yrotation 
					JOINT Head
					{
						OFFSET 6.45672 0.0 0.0
						CHANNELS 6 Xposition Yposition Zposition Zrotation Xrotation Yrotation 
						End Site
						{
							OFFSET 0.0 0.0 0.0
						}
					}
				}
				JOINT Shoulder_L
				{
					OFFSET 12.9942 -0.242716 4.98039
					CHANNELS 6 Xposition Yposition Zposition Zrotation Xrotation Yrotation 
					JOINT UpperArm_L
					{
						OFFSET 5.34809 0.0 0.0
						CHANNELS 6 Xposition Yposition Zposition Zrotation Xrotation Yrotation 
						JOINT LowerArm_L
						{
							OFFSET 24.3286 1.87007e-05 0.0
							CHANNELS 6 Xposition Yposition Zposition Zrotation Xrotation Yrotation 
							JOINT Hand_L
							{
								OFFSET 22.2916 0.0 0.0
								CHANNELS 6 Xposition Yposition Zposition Zrotation Xrotation Yrotation 
								End Site
								{
									OFFSET 0.0 0.0 0.0
								}
							}
						}
					}
				}
				JOINT Shoulder_R
				{
					OFFSET 12.9945 -0.242716 -4.98039
					CHANNELS 6 Xposition Yposition Zposition Zrotation Xrotation Yrotation 
					JOINT UpperArm_R
					{
						OFFSET -5.34813 0.0 0.0
						CHANNELS 6 Xposition Yposition Zposition Zrotation Xrotation Yrotation 
						JOINT LowerArm_R
						{
							OFFSET -24.3289 0.000322201 0.0
							CHANNELS 6 Xposition Yposition Zposition Zrotation Xrotation Yrotation 
							JOINT Hand_R
							{
								OFFSET -22.2915 -0.000108084 0.0
								CHANNELS 6 Xposition Yposition Zposition Zrotation Xrotation Yrotation 
								End Site
								{
									OFFSET 0.0 0.0 0.0
								}
							}
						}
					}
				}
			}
		}
		JOINT UpperLeg_L
		{
			OFFSET -2.19248 -6.46944 0.0
			CHANNELS 6 Xposition Yposition Zposition Zrotation Xrotation Yrotation 
			JOINT LowerLeg_L
			{
				OFFSET 39.0811 0.0 -1.23785e-05
				CHANNELS 6 Xposition Yposition Zposition Zrotation Xrotation Yrotation 
				JOINT Foot_L
				{
					OFFSET 40.9854 0.0 -1.26872e-05
					CHANNELS 6 Xposition Yposition Zposition Zrotation Xrotation Yrotation 
					JOINT Toes_L
					{
						OFFSET 11.7543 0.0 0.0
						CHANNELS 6 Xposition Yposition Zposition Zrotation Xrotation Yrotation 
						End Site
						{
							OFFSET 0.0 0.0 0.0
						}
					}
				}
			}
		}
		JOINT UpperLeg_R
		{
			OFFSET -2.19251 6.46944 0.0
			CHANNELS 6 Xposition Yposition Zposition Zrotation Xrotation Yrotation 
			JOINT LowerLeg_R
			{
				OFFSET -39.0811 -0.00228153 -0.0401928
				CHANNELS 6 Xposition Yposition Zposition Zrotation Xrotation Yrotation 
				JOINT Foot_R
				{
					OFFSET -40.9854 0.0 0.0
					CHANNELS 6 Xposition Yposition Zposition Zrotation Xrotation Yrotation 
					JOINT Toes_R
					{
						OFFSET -11.7543 0.0 0.0
						CHANNELS 6 Xposition Yposition Zposition Zrotation Xrotation Yrotation 
						End Site
						{
							OFFSET 0.0 0.0 0.0
						}
					}
				}
			}
		}
	}
}
MOTION
Frames:	6
Frame Time:	0.0333333
0.000000 0.000000 0.000000 0.000000 0.000000 -0.000000 -0.467458 80.105900 0.154935 88.528800 -5.008010 13.185800 15.735700 0.000005 -0.000001 87.018800 80.584300 -87.015200 8.984550 -0.406207 -0.000000 11.041000 -0.971930 0.101022 16.377300 -0.000001 -0.000001 -3.763720 -3.841250 1.667530 6.456720 -0.000001 -0.000000 -5.184980 -3.123400 2.231720 12.994200 -0.242716 4.980390 -91.266700 4.664340 -74.789000 5.348090 -0.000007 -0.000001 -59.022300 37.597300 -24.453900 24.328600 0.000019 0.000005 8.540310 23.218400 -20.854000 22.291600 -0.000001 0.000005 3.706170 5.254960 1.285460 12.994500 -0.242716 -4.980390 88.904800 7.962210 -82.142500 -5.348130 -0.000001 -0.000004 -56.408300 45.015500 -18.600100 -24.328900 0.000322 -0.000009 2.055340 4.752510 -23.442000 -22.291500 -0.000108 -0.000004 6.583300 5.173990 3.375420 -2.192480 -6.469440 -0.000000 -172.575000 -11.141800 -13.748400 39.081100 -0.000007 -0.000012 -0.752310 0.312871 67.420200 40.985400 -0.000006 -0.000013 0.195947 2.973550 -89.964200 11.754300 -0.000000 0.000003 -0.000433 -0.003531 -16.707400 -2.192510 6.469440 -0.000001 177.582000 7.779540 165.694000 -39.081100 -0.002282 -0.040193 0.089195 -0.035727 67.452800 -40.985400 0.000008 0.000006 7.190030 2.932730 -89.523600 -11.754300 -0.000006 -0.000006 -0.615698 -0.755978 -17.167200
0.000000 0.000000 0.000000 0.000000 0.000000 -0.000000 -0.311394 82.306300 0.667983 88.887100 -5.319910 13.440000 15.735700 0.000005 -0.000001 87.213500 81.229900 -87.319500 8.984550 -0.406207 -0.000000 9.753420 -0.849397 -0.139471 16.377300 -0.000001 -0.000001 -2.800980 -3.835960 1.839480 6.456720 -0.000001 -0.000000 -4.212090 -2.973700 1.661060 12.994200 -0.242716 4.980390 -91.033600 3.751690 -74.584900 5.348090 -0.000007 -0.000001 -56.015800 36.876600 -27.858100 24.328600 0.000019 0.000005 11.512300 28.302700 -23.247100 22.291600 -0.000001 0.000005 -2.337660 5.345010 -1.228150 12.994500 -0.242716 -4.980390 89.128200 6.102210 -81.853000 -5.348130 -0.000001 -0.000004 -48.686100 49.453900 -27.597200 -24.328900 0.000322 -0.000009 4.610680 11.255600 -22.453300 -22.291500 -0.000108 -0.000004 -5.614500 5.251280 1.384140 -2.192480 -6.469440 -0.000000 -172.870000 -11.779200 -10.054600 39.081100 -0.000007 -0.000012 -0.654482 0.358806 61.268700 40.985400 -0.000006 -0.000013 0.279374 3.165930 -87.240100 11.754300 -0.000000 0.000003 -0.000363 -0.003050 -16.690400 -2.192510 6.469440 -0.000001 176.642000 8.485080 169.155000 -39.081100 -0.002282 -0.040193 0.074907 -0.038808 61.580600 -40.985400 0.000008 0.000006 7.438880 4.569900 -86.866000 -11.754300 -0.000006 -0.000006 -0.654317 -0.802957 -17.255200
0.000000 0.000000 0.000000 0.000000 0.000000 -0.000000 -0.150656 85.090900 1.055900 89.299400 -5.988540 13.026800 15.735700 0.000005 -0.000001 87.616600 82.426400 -87.883200 8.984550 -0.406207 -0.000000 7.367030 -0.626638 -0.492271 16.377300 -0.000001 -0.000001 0.115433 -3.445360 2.000320 6.456720 -0.000001 -0.000000 -2.470720 -2.807130 1.250430 12.994200 -0.242716 4.980390 -90.657500 2.253870 -73.731400 5.348090 -0.000007 -0.000001 -51.911000 28.733700 -33.065500 24.328600 0.000019 0.000005 10.673200 22.229100 -26.483400 22.291600 -0.000001 0.000005 0.869867 5.295930 0.182881 12.994500 -0.242716 -4.980390 89.426100 3.626850 -81.000800 -5.348130 -0.000001 -0.000004 -42.318500 43.484200 -35.933500 -24.328900 0.000322 -0.000009 3.934680 8.328900 -25.407700 -22.291500 -0.000108 -0.000004 -12.350900 5.166120 3.557440 -2.192480 -6.469440 -0.000000 -173.329000 -12.746100 -5.917180 39.081100 -0.000007 -0.000012 -0.502484 0.382962 52.688800 40.985400 -0.000006 -0.000013 0.254366 3.367220 -83.190900 11.754300 -0.000000 0.000003 -0.000281 -0.002466 -16.669600 -2.192510 6.469440 -0.000001 175.551000 9.731420 172.820000 -39.081100 -0.002282 -0.040193 0.055991 -0.038975 53.544800 -40.985400 0.000008 0.000006 7.659820 7.280140 -82.765600 -11.754300 -0.000006 -0.000006 -0.585177 -0.717148 -17.652400
0.000000 0.000000 0.000000 0.000000 0.000000 -0.000000 -0.026497 87.590800 0.898473 89.443800 -6.674560 10.831400 15.735700 0.000005 -0.000001 88.460000 84.226400 -88.700200 8.984550 -0.406207 -0.000000 3.776410 -0.301552 -0.469822 16.377300 -0.000001 -0.000001 3.473730 -3.477310 1.959000 6.456720 -0.000001 -0.000000 0.134943 -2.683720 0.727083 12.994200 -0.242716 4.980390 -90.101900 0.347671 -73.663200 5.348090 -0.000007 -0.000001 -50.388200 13.844600 -39.830900 24.328600 0.000019 0.000005 10.659700 18.191300 -31.087000 22.291600 -0.000001 0.000005 3.917260 5.243550 1.598270 12.994500 -0.242716 -4.980390 89.777700 1.285880 -80.188600 -5.348130 -0.000001 -0.000004 -38.097100 30.114400 -43.678300 -24.328900 0.000322 -0.000009 4.039740 7.323260 -28.994500 -22.291500 -0.000108 -0.000004 -5.069820 5.173020 3.399880 -2.192480 -6.469440 -0.000000 -174.064000 -13.582000 -4.061650 39.081100 -0.000007 -0.000012 -0.380323 0.392498 44.098300 40.985400 -0.000006 -0.000013 0.055565 3.245190 -78.681200 11.754300 -0.000000 0.000003 -0.000183 -0.001714 -16.642400 -2.192510 6.469440 -0.000001 175.282000 11.235200 174.221000 -39.081100 -0.002282 -0.040193 0.041432 -0.037445 45.549300 -40.985400 0.000008 0.000006 7.720420 9.985940 -78.082100 -11.754300 -0.000006 -0.000006 -0.562944 -0.689622 -18.168400
0.000000 0.000000 0.000000 0.000000 0.000000 -0.000000 0.041191 89.298800 0.494318 89.259300 -7.333880 8.637500 15.735700 0.000005 -0.000001 88.354400 85.546400 -88.556000 8.984550 -0.406207 -0.000000 1.137170 -0.244014 -0.400369 16.377300 -0.000001 -0.000001 4.728290 -3.352320 2.306260 6.456720 -0.000001 -0.000000 2.087820 -2.648940 0.200142 12.994200 -0.242716 4.980390 -89.501600 -1.616850 -72.865500 5.348090 -0.000007 -0.000001 -46.431300 -0.545755 -50.339800 24.328600 0.000019 0.000005 11.594800 15.552600 -37.425600 22.291600 -0.000001 0.000005 11.150600 5.219460 2.226500 12.994500 -0.242716 -4.980390 90.089600 -0.491934 -79.685000 -5.348130 -0.000001 -0.000004 -35.944900 13.119400 -51.514200 -24.328900 0.000322 -0.000009 5.780770 8.201030 -35.368500 -22.291500 -0.000108 -0.000004 11.860900 5.332420 -0.760298 -2.192480 -6.469440 -0.000000 -174.561000 -13.987800 -3.296860 39.081100 -0.000007 -0.000012 -0.290329 0.378999 37.454200 40.985400 -0.000006 -0.000013 -0.194886 2.851730 -75.026900 11.754300 -0.000000 0.000003 -0.000117 -0.001175 -16.622500 -2.192510 6.469440 -0.000001 175.694000 12.256900 174.840000 -39.081100 -0.002282 -0.040193 0.030547 -0.033662 39.007200 -40.985400 0.000008 0.000006 7.482780 12.007500 -74.431700 -11.754300 -0.000006 -0.000006 -0.356048 -0.448369 -18.364400
0.000000 0.000000 0.000000 0.000000 0.000000 -0.000000 0.070523 90.281400 0.022992 88.843000 -7.820680 6.479640 15.735700 0.000005 -0.000001 88.637000 86.309200 -88.677600 8.984550 -0.406207 -0.000000 -0.386619 -0.172663 -0.081724 16.377300 -0.000001 -0.000001 3.739060 -3.402560 2.378940 6.456720 -0.000001 -0.000000 2.169690 -2.570190 0.139414 12.994200 -0.242716 4.980390 -88.643200 -4.362680 -72.705800 5.348090 -0.000007 -0.000001 -45.629100 -16.503000 -60.175500 24.328600 0.000019 0.000005 12.164600 12.464500 -44.965300 22.291600 -0.000001 0.000005 19.749500 5.235180 1.826040 12.994500 -0.242716 -4.980390 90.558600 -2.938330 -79.232400 -5.348130 -0.000001 -0.000004 -39.723200 -5.684370 -59.059000 -24.328900 0.000322 -0.000009 3.511110 3.587180 -44.479100 -22.291500 -0.000108 -0.000004 27.000900 5.466360 -5.208390 -2.192480 -6.469440 -0.000000 -174.944000 -13.523300 -3.822950 39.081100 -0.000007 -0.000012 -0.242251 0.367886 33.365100 40.985400 -0.000006 -0.000013 -0.531381 1.918920 -72.623700 11.754300 -0.000000 0.000003 -0.000101 -0.001035 -16.617300 -2.192510 6.469440 -0.000001 176.522000 13.136800 174.630000 -39.081100 -0.002282 -0.040193 0.025273 -0.032131 34.376400 -40.985400 0.000008 0.000006 7.431190 13.401000 -72.215100 -11.754300 -0.000006 -0.000006 -0.004764 -0.043089 -18.245900
